<?xml version="1.0" encoding="utf-8"?>
<!-- Generator: Adobe Illustrator 16.0.4, SVG Export Plug-In . SVG Version: 6.00 Build 0)  -->
<!DOCTYPE svg PUBLIC "-//W3C//DTD SVG 1.1//EN" "http://www.w3.org/Graphics/SVG/1.1/DTD/svg11.dtd">
<svg version="1.1" id="Layer_1" xmlns="http://www.w3.org/2000/svg" xmlns:xlink="http://www.w3.org/1999/xlink" x="0px" y="0px"
	 width="108px" height="42px" viewBox="8.5 2.5 108 42" enable-background="new 8.5 2.5 108 42" xml:space="preserve">
<path d="M44.163,35.479l-0.977-0.788c-1.166,1.053-2.668,1.69-4.285,1.69c-1.653,0-3.119-0.601-4.209-1.728
	c-1.052-1.091-1.654-2.557-1.654-4.171c0-1.129,0.301-2.255,0.902-3.232l-0.338-0.264l-0.865,1.128
	c-0.602-0.076-1.052-0.487-1.241-1.016l0.902-1.052l-4.547-3.682v5.863h1.466c0.112,0.263,0.225,0.526,0.225,0.79
	c0,0.262-0.075,0.524-0.225,0.751h-1.466v0.412c1.503,0.227,2.856,0.941,3.795,2.03c0.977,1.053,1.541,2.405,1.541,3.908
	c0,1.54-0.563,2.895-1.541,3.983c-0.978,1.053-2.292,1.768-3.795,1.992v1.241c-0.3,0.188-0.639,0.264-0.939,0.264
	c-0.338,0-0.639-0.076-0.939-0.264v-1.241c-1.428-0.225-2.818-0.939-3.795-2.029c-0.939-1.052-1.503-2.405-1.503-3.946
	c0-1.503,0.563-2.855,1.503-3.908c0.977-1.053,2.292-1.767,3.795-1.991v-0.414h-1.466c-0.113-0.264-0.225-0.489-0.225-0.753
	c0-0.299,0.074-0.562,0.263-0.825h1.428v-5.863l-4.51,3.682l0.865,1.052c-0.15,0.527-0.639,0.902-1.202,1.016l-0.865-1.128
	l-0.338,0.264c0.563,0.978,0.902,2.104,0.902,3.232c0,1.652-0.639,3.08-1.691,4.171c-1.09,1.127-2.518,1.728-4.171,1.728
	c-1.653,0-3.119-0.601-4.284-1.69l-0.976,0.827c-0.639-0.227-1.09-0.751-1.202-1.467l1.015-0.826
	c-0.601-0.977-0.939-2.029-0.939-3.269c0-1.616,0.639-3.083,1.691-4.135c1.09-1.089,2.518-1.765,4.171-1.765
	c1.578,0,3.12,0.639,4.285,1.691l0.337-0.265l-0.939-1.052c0.188-0.565,0.639-0.94,1.203-1.053l0.902,1.166l5.187-4.209
	l-5.187-4.134l-0.676,0.789l0.978,0.79l-0.79,0.939l-0.977-0.79l-0.677,0.864l0.977,0.791l-0.788,0.939l-2.593-2.105l2.706-1.54
	l-0.752-0.639l-2.592,1.541l0.939-2.856l-0.751-0.639l-0.976,3.006l-2.631-2.104l0.79-1.015l0.977,0.79l0.676-0.827l-0.978-0.789
	l0.79-0.977l0.977,0.788l0.676-0.826l-2.141-1.691c0.113-0.714,0.563-1.314,1.202-1.502l11.388,9.169v-6.088h-1.09v1.241h-1.241
	v-1.241h-1.09v1.241h-1.24v-3.383l2.931,1.202v-0.939l-2.818-1.126l2.818-1.09V7.182l-2.931,1.167v-3.42h1.24v1.241h1.053V4.929
	h1.278v1.241h1.052V3.425c0.3-0.189,0.676-0.262,0.977-0.262s0.677,0.073,0.939,0.3v14.883L39.24,9.137
	c0.676,0.188,1.127,0.789,1.241,1.465l-2.143,1.729l0.677,0.826l0.977-0.788l0.751,0.977l-0.976,0.789l0.714,0.827l0.977-0.79
	l0.751,0.978l-2.631,2.142l-0.976-3.006l-0.714,0.639l0.939,2.856l-2.631-1.541l-0.751,0.601l2.706,1.578l-2.593,2.105l-0.752-0.939
	l0.939-0.791l-0.677-0.864l-0.977,0.79l-0.751-0.939l0.978-0.79l-0.714-0.79l-5.149,4.134l5.112,4.208l0.939-1.165
	c0.564,0.112,1.015,0.486,1.203,1.013l-0.902,1.092l0.301,0.264c1.203-1.054,2.705-1.691,4.284-1.691
	c1.654,0,3.082,0.638,4.171,1.765c1.052,1.053,1.69,2.52,1.69,4.136c0,1.239-0.3,2.291-0.902,3.268l0.978,0.789
	C45.253,34.729,44.839,35.255,44.163,35.479z M18.646,30.105c-0.3-0.375-0.714-0.6-1.202-0.6c-0.977,0-1.766,0.751-1.766,1.69
	c0,0.788,0.639,1.577,1.541,1.69l-1.241,0.978c-0.451-0.188-0.902-0.563-1.24-1.016c-0.338-0.487-0.527-0.975-0.527-1.502
	c0-0.301,0.039-0.562,0.151-0.789c-0.151,0-0.263,0-0.413,0c-0.563,0-1.128-0.264-1.616-0.714c-0.451-0.451-0.79-1.016-0.902-1.615
	l1.203-0.978c-0.037,0.488,0.113,0.938,0.414,1.278c0.338,0.376,0.789,0.601,1.24,0.601s0.865-0.188,1.202-0.524
	c0.339-0.303,0.526-0.753,0.526-1.203c0-0.489-0.226-0.94-0.639-1.278c-0.376-0.34-0.902-0.526-1.39-0.526
	c-1.052,0-2.03,0.563-2.744,1.466c-0.713,0.826-1.127,1.918-1.127,2.933c0,0.863,0.225,1.576,0.601,2.328l0.865-0.752
	c0.639,0.226,1.052,0.752,1.165,1.428l-0.902,0.714c0.865,0.751,1.917,1.203,3.082,1.203c0.939,0,1.954-0.376,2.781-0.978
	c0.865-0.639,1.427-1.54,1.427-2.518C19.134,30.97,18.947,30.483,18.646,30.105z M29.245,33c-0.939,0-1.579,0.788-1.579,1.729
	c0,0.9,0.751,1.652,1.654,1.652c0.414,0,0.827-0.113,1.241-0.525v1.578c-0.451,0.188-0.902,0.339-1.315,0.339
	c-1.015,0-1.804-0.301-2.331-1.128c-0.488,0.789-1.278,1.128-2.292,1.128c-0.451,0-0.902-0.113-1.353-0.339v-1.578
	c0.414,0.375,0.827,0.525,1.24,0.525c0.902,0,1.654-0.752,1.654-1.652c0-0.941-0.639-1.729-1.578-1.729
	c-0.865,0-1.428,0.415-1.841,1.015c-0.339,0.563-0.527,1.315-0.527,2.105c0,1.126,0.376,2.143,1.09,2.894
	c0.676,0.789,1.578,1.353,2.668,1.54v-1.127c0.3-0.15,0.639-0.265,0.939-0.265c0.339,0,0.677,0.114,0.939,0.265v1.127
	c1.09-0.188,2.029-0.751,2.706-1.503c0.676-0.788,1.089-1.805,1.089-2.931C31.649,34.467,30.973,33,29.245,33z M42.622,27.024
	c-0.714-0.863-1.653-1.427-2.743-1.427c-0.489,0-0.977,0.188-1.391,0.526c-0.375,0.301-0.639,0.75-0.639,1.278
	c0,0.45,0.188,0.863,0.488,1.203c0.339,0.339,0.79,0.524,1.241,0.524s0.827-0.188,1.166-0.524c0.301-0.303,0.488-0.678,0.488-1.092
	v-0.263l1.202,0.978c-0.112,0.6-0.414,1.165-0.865,1.615c-0.488,0.45-1.052,0.714-1.653,0.714c-0.113,0-0.263,0-0.414,0
	c0.113,0.227,0.151,0.488,0.151,0.789c0,0.527-0.188,1.053-0.526,1.502c-0.338,0.451-0.79,0.828-1.24,1.016l-1.241-0.978
	c0.902-0.113,1.541-0.902,1.541-1.69c0-0.939-0.79-1.69-1.766-1.69c-0.488,0-0.902,0.226-1.203,0.6
	c-0.301,0.378-0.451,0.864-0.451,1.316c0,0.978,0.526,1.879,1.391,2.518c0.828,0.602,1.841,0.978,2.78,0.978
	c1.166,0,2.18-0.45,3.083-1.203L41.118,33c0.075-0.676,0.488-1.203,1.166-1.428l0.865,0.714c0.376-0.714,0.601-1.427,0.601-2.29
	C43.749,28.942,43.336,27.89,42.622,27.024z"/>
<path fill="#E60000" d="M72.646,10.415v16.384c0,5.638-2.143,9.658-8.605,9.658c-7.103,0-9.208-3.795-9.208-9.094V10.415h-2.969
	V9.175h10.259v1.239H58.93V26.95c0,4.848,1.503,7.854,6.048,7.854c4.549,0,6.014-3.608,6.014-8.382V10.415h-2.932V9.175h7.215v1.239
	H72.646z M88.016,36.045H76.703v-1.24h3.195v-24.39h-3.006V9.175h11.309c4.586,0,7.33,2.367,7.33,6.013
	c0,3.833-2.48,5.71-6.314,6.463v0.074c3.908,0.452,7.479,2.182,7.479,7.029C96.697,34.127,92.6,36.045,88.016,36.045z M87,10.415
	h-3.119v10.711h3.045c2.594,0,4.66-1.54,4.66-5.375C91.586,12.558,90.119,10.415,87,10.415z M87,22.403h-3.119v12.402h3.008
	c3.908,0,5.711-2.219,5.711-6.352C92.6,24.244,90.309,22.403,87,22.403z M107.783,36.494c-2.781,0-5.375-0.525-7.555-1.765
	l-0.264-6.878h1.279c0.414,4.51,3.006,7.367,6.877,7.367c2.518,0,5.297-1.616,5.297-4.925c0-3.344-3.006-4.772-6.199-5.824
	c-3.42-1.128-7.217-3.232-7.217-8.043c0-5.262,4.172-7.704,8.23-7.704c2.369,0,4.811,0.64,6.803,1.691l0.225,5.937h-1.277
	c-0.639-4.134-2.443-6.35-6.049-6.35c-2.256,0-4.887,1.653-4.887,4.546c0,2.856,2.818,4.097,5.637,4.999
	c3.607,1.164,7.816,3.006,7.816,8.568C116.5,33.188,113.006,36.494,107.783,36.494z"/>
</svg>
